<svg width="150" height="100" viewBox="0 0 150 100" fill="none" xmlns="http://www.w3.org/2000/svg">
<g clip-path="url(#clip0)">
<g filter="url(#filter0_d)">
<path d="M36.916 50.9238H19.748V69H12.3359V26.3438H39.4355V32.3203H19.748V45.0059H36.916V50.9238ZM100.139 52.5645H91.877V69H84.4648V26.3438H99.4648C104.387 26.3438 108.186 27.4473 110.861 29.6543C113.537 31.8613 114.875 35.0547 114.875 39.2344C114.875 42.0859 114.182 44.4785 112.795 46.4121C111.428 48.3262 109.514 49.8008 107.053 50.8359L116.633 68.6191V69H108.693L100.139 52.5645ZM91.877 46.6172H99.4941C101.994 46.6172 103.947 45.9922 105.354 44.7422C106.76 43.4727 107.463 41.7441 107.463 39.5566C107.463 37.2715 106.809 35.5039 105.5 34.2539C104.211 33.0039 102.277 32.3594 99.6992 32.3203H91.877V46.6172Z" fill="#131C2D"/>
<path d="M76.5254 26.3438V54.8496C76.5254 59.3809 75.0703 62.9746 72.1602 65.6309C69.2695 68.2676 65.4121 69.5859 60.5879 69.5859C55.7051 69.5859 51.8281 68.2871 48.957 65.6895C46.0859 63.0723 44.6504 59.4492 44.6504 54.8203V26.3438H52.0332V54.8789C52.0332 57.7305 52.7559 59.9082 54.2012 61.4121C55.6465 62.916 57.7754 63.668 60.5879 63.668C66.291 63.668 69.1426 60.6602 69.1426 54.6445V26.3438H76.5254ZM129.729 69H122.346V26.3438H129.729V69Z" fill="#4784FF"/>
</g>
</g>
<defs>
<filter id="filter0_d" x="10.3359" y="25.3438" width="125.393" height="51.2422" filterUnits="userSpaceOnUse" color-interpolation-filters="sRGB">
<feFlood flood-opacity="0" result="BackgroundImageFix"/>
<feColorMatrix in="SourceAlpha" type="matrix" values="0 0 0 0 0 0 0 0 0 0 0 0 0 0 0 0 0 0 127 0"/>
<feOffset dx="2" dy="3"/>
<feGaussianBlur stdDeviation="2"/>
<feColorMatrix type="matrix" values="0 0 0 0 0 0 0 0 0 0 0 0 0 0 0 0 0 0 0.25 0"/>
<feBlend mode="normal" in2="BackgroundImageFix" result="effect1_dropShadow"/>
<feBlend mode="normal" in="SourceGraphic" in2="effect1_dropShadow" result="shape"/>
</filter>
<clipPath id="clip0">
<rect width="150" height="100" fill="white"/>
</clipPath>
</defs>
</svg>
