<svg width="330" height="144" viewBox="0 0 330 144" fill="none" xmlns="http://www.w3.org/2000/svg">
<g filter="url(#filter0_d)">
<path d="M52.1738 105H44.7617L25.748 74.7363V105H18.3359V62.3438H25.748L44.8203 92.7246V62.3438H52.1738V105ZM85.8652 85.957H68.3457V99.082H88.8242V105H60.9336V62.3438H88.6191V68.3203H68.3457V80.0977H85.8652V85.957ZM192.516 53.0371H173.673V105H163.255V53.0371H144.579V44.5703H192.516V53.0371ZM214.352 88.5645H206.09V105H198.678V62.3438H213.678C218.6 62.3438 222.398 63.4473 225.074 65.6543C227.75 67.8613 229.088 71.0547 229.088 75.2344C229.088 78.0859 228.395 80.4785 227.008 82.4121C225.641 84.3262 223.727 85.8008 221.266 86.8359L230.846 104.619V105H222.906L214.352 88.5645ZM206.09 82.6172H213.707C216.207 82.6172 218.16 81.9922 219.566 80.7422C220.973 79.4727 221.676 77.7441 221.676 75.5566C221.676 73.2715 221.021 71.5039 219.713 70.2539C218.424 69.0039 216.49 68.3594 213.912 68.3203H206.09V82.6172ZM270.162 84.7852C270.162 88.9648 269.439 92.6367 267.994 95.8008C266.549 98.9453 264.479 101.367 261.783 103.066C259.107 104.746 256.021 105.586 252.525 105.586C249.068 105.586 245.982 104.746 243.268 103.066C240.572 101.367 238.482 98.9551 236.998 95.8301C235.533 92.7051 234.791 89.1016 234.771 85.0195V82.6172C234.771 78.457 235.504 74.7852 236.969 71.6016C238.453 68.418 240.533 65.9863 243.209 64.3066C245.904 62.6074 248.99 61.7578 252.467 61.7578C255.943 61.7578 259.02 62.5977 261.695 64.2773C264.391 65.9375 266.471 68.3398 267.936 71.4844C269.4 74.6094 270.143 78.252 270.162 82.4121V84.7852ZM262.75 82.5586C262.75 77.832 261.852 74.209 260.055 71.6895C258.277 69.1699 255.748 67.9102 252.467 67.9102C249.264 67.9102 246.754 69.1699 244.938 71.6895C243.141 74.1895 242.223 77.7344 242.184 82.3242V84.7852C242.184 89.4727 243.092 93.0957 244.908 95.6543C246.744 98.2129 249.283 99.4922 252.525 99.4922C255.807 99.4922 258.326 98.2422 260.084 95.7422C261.861 93.2422 262.75 89.5898 262.75 84.7852V82.5586ZM311.383 105H303.971L284.957 74.7363V105H277.545V62.3438H284.957L304.029 92.7246V62.3438H311.383V105Z" fill="#131C2D"/>
<path d="M137.906 48.125V86.1328C137.906 92.1745 135.966 96.9661 132.086 100.508C128.232 104.023 123.089 105.781 116.656 105.781C110.146 105.781 104.977 104.049 101.148 100.586C97.3203 97.0964 95.4062 92.2656 95.4062 86.0938V48.125H105.25V86.1719C105.25 89.974 106.214 92.8776 108.141 94.8828C110.068 96.888 112.906 97.8906 116.656 97.8906C124.26 97.8906 128.062 93.8802 128.062 85.8594V48.125H137.906Z" fill="#4784FF"/>
</g>
<rect x="163" y="53" width="11" height="52" fill="#4784FF"/>
<defs>
<filter id="filter0_d" x="16.3359" y="43.5703" width="301.047" height="69.2109" filterUnits="userSpaceOnUse" color-interpolation-filters="sRGB">
<feFlood flood-opacity="0" result="BackgroundImageFix"/>
<feColorMatrix in="SourceAlpha" type="matrix" values="0 0 0 0 0 0 0 0 0 0 0 0 0 0 0 0 0 0 127 0"/>
<feOffset dx="2" dy="3"/>
<feGaussianBlur stdDeviation="2"/>
<feColorMatrix type="matrix" values="0 0 0 0 0 0 0 0 0 0 0 0 0 0 0 0 0 0 0.25 0"/>
<feBlend mode="normal" in2="BackgroundImageFix" result="effect1_dropShadow"/>
<feBlend mode="normal" in="SourceGraphic" in2="effect1_dropShadow" result="shape"/>
</filter>
</defs>
</svg>
